# xmcd CD database file
#
# Track frame offsets:
#	150
#	19297
#	39961
#	63780
#	79921
#	98668
#	117508
#	136458
#	151605
#	171535
#	189131
#
# Disc length: 2717 seconds
#
# Revision: 0
# Processed by: cddbd v1.5.1PL2 Copyright (c) Steve Scherf et al.
# Submitted via: CDex 1.51
#
DISCID=840a9b0b
DTITLE=Mamborama - 'Directamente Al Mambo'
DYEAR=2006
DGENRE=Salsa
TTITLE0=Mi Bailarina
TTITLE1=Puro Y Tamba
TTITLE2=Las Cubanas, Que Lindas Son
TTITLE3=La Mentirosa
TTITLE4=Taca Toco
TTITLE5=Senorita Pajarita
TTITLE6=No Mereces La Pena
TTITLE7=Directamente Al Mambo
TTITLE8=Baila Comigo
TTITLE9=Mi Con Mi Jolongo
TTITLE10=Ave Maria Por Dos
EXTD=YEAR: 2006
EXTT0=
EXTT1=
EXTT2=
EXTT3=
EXTT4=
EXTT5=
EXTT6=
EXTT7=
EXTT8=
EXTT9=
EXTT10=
PLAYORDER=
